<svg width="39" height="16" viewBox="0 0 39 16" fill="none" xmlns="http://www.w3.org/2000/svg">
<path d="M8.27569 11.9208L11.4279 13.9179C11.8308 14.1732 12.3311 13.7935 12.2115 13.3232L11.3008 9.74052C11.2752 9.64073 11.2782 9.53574 11.3096 9.4376C11.3409 9.33947 11.3994 9.25218 11.4781 9.18578L14.3049 6.83306C14.6763 6.52392 14.4846 5.90751 14.0074 5.87654L10.3159 5.63696C10.2165 5.62986 10.1211 5.59466 10.0409 5.53545C9.96069 5.47625 9.89896 5.39548 9.86289 5.30255L8.48612 1.83549C8.44869 1.73686 8.38215 1.65194 8.29532 1.59202C8.2085 1.5321 8.1055 1.5 8 1.5C7.89451 1.5 7.79151 1.5321 7.70468 1.59202C7.61786 1.65194 7.55131 1.73686 7.51389 1.83549L6.13712 5.30255C6.10104 5.39548 6.03931 5.47625 5.95912 5.53545C5.87892 5.59466 5.78355 5.62986 5.68412 5.63696L1.99263 5.87654C1.51544 5.90751 1.32373 6.52392 1.69515 6.83306L4.52185 9.18578C4.60063 9.25218 4.65906 9.33947 4.69044 9.4376C4.72181 9.53574 4.72485 9.64073 4.6992 9.74052L3.85459 13.063C3.71111 13.6274 4.31143 14.0831 4.79495 13.7767L7.72431 11.9208C7.8067 11.8683 7.90234 11.8405 8 11.8405C8.09767 11.8405 8.1933 11.8683 8.27569 11.9208V11.9208Z" stroke="#FF8700" stroke-linecap="round" stroke-linejoin="round"/>
<path d="M23.9 12.62C23.204 12.62 22.6 12.516 22.088 12.308C21.576 12.1 21.18 11.808 20.9 11.432C20.62 11.048 20.48 10.6 20.48 10.088C20.48 9.576 20.616 9.144 20.888 8.792C21.16 8.44 21.552 8.172 22.064 7.988C22.576 7.804 23.188 7.712 23.9 7.712C24.612 7.712 25.224 7.804 25.736 7.988C26.256 8.172 26.652 8.444 26.924 8.804C27.204 9.156 27.344 9.584 27.344 10.088C27.344 10.6 27.2 11.048 26.912 11.432C26.632 11.808 26.232 12.1 25.712 12.308C25.2 12.516 24.596 12.62 23.9 12.62ZM23.9 11.396C24.476 11.396 24.932 11.276 25.268 11.036C25.604 10.796 25.772 10.464 25.772 10.04C25.772 9.624 25.604 9.296 25.268 9.056C24.932 8.816 24.476 8.696 23.9 8.696C23.324 8.696 22.872 8.816 22.544 9.056C22.216 9.296 22.052 9.624 22.052 10.04C22.052 10.464 22.216 10.796 22.544 11.036C22.872 11.276 23.324 11.396 23.9 11.396ZM23.9 8.528C23.252 8.528 22.696 8.444 22.232 8.276C21.768 8.1 21.408 7.848 21.152 7.52C20.904 7.184 20.78 6.784 20.78 6.32C20.78 5.84 20.908 5.428 21.164 5.084C21.428 4.732 21.796 4.46 22.268 4.268C22.74 4.076 23.284 3.98 23.9 3.98C24.524 3.98 25.072 4.076 25.544 4.268C26.016 4.46 26.384 4.732 26.648 5.084C26.912 5.428 27.044 5.84 27.044 6.32C27.044 6.784 26.916 7.184 26.66 7.52C26.412 7.848 26.052 8.1 25.58 8.276C25.108 8.444 24.548 8.528 23.9 8.528ZM23.9 7.568C24.396 7.568 24.788 7.464 25.076 7.256C25.364 7.04 25.508 6.752 25.508 6.392C25.508 6.016 25.36 5.724 25.064 5.516C24.768 5.308 24.38 5.204 23.9 5.204C23.42 5.204 23.036 5.308 22.748 5.516C22.46 5.724 22.316 6.016 22.316 6.392C22.316 6.752 22.456 7.04 22.736 7.256C23.024 7.464 23.412 7.568 23.9 7.568ZM29.5293 12.584C29.2573 12.584 29.0253 12.492 28.8333 12.308C28.6413 12.116 28.5453 11.876 28.5453 11.588C28.5453 11.284 28.6413 11.044 28.8333 10.868C29.0253 10.684 29.2573 10.592 29.5293 10.592C29.8013 10.592 30.0333 10.684 30.2253 10.868C30.4173 11.044 30.5133 11.284 30.5133 11.588C30.5133 11.876 30.4173 12.116 30.2253 12.308C30.0333 12.492 29.8013 12.584 29.5293 12.584ZM34.427 12.62C33.835 12.62 33.255 12.536 32.687 12.368C32.127 12.192 31.655 11.952 31.271 11.648L31.931 10.436C32.235 10.684 32.603 10.884 33.035 11.036C33.475 11.188 33.931 11.264 34.403 11.264C34.955 11.264 35.387 11.148 35.699 10.916C36.019 10.684 36.179 10.372 36.179 9.98C36.179 9.716 36.111 9.484 35.975 9.284C35.847 9.084 35.615 8.932 35.279 8.828C34.951 8.724 34.499 8.672 33.923 8.672H31.895L32.327 4.1H37.259V5.408H32.903L33.719 4.664L33.395 8.084L32.579 7.352H34.271C35.103 7.352 35.771 7.464 36.275 7.688C36.787 7.904 37.159 8.208 37.391 8.6C37.631 8.984 37.751 9.424 37.751 9.92C37.751 10.408 37.631 10.856 37.391 11.264C37.151 11.672 36.783 12 36.287 12.248C35.799 12.496 35.179 12.62 34.427 12.62Z" fill="#FF8700"/>
</svg>
