<svg width="18" height="24" viewBox="0 0 18 24" fill="none" xmlns="http://www.w3.org/2000/svg">
<path d="M2.00803e-07 2.99973V23.2497C-9.50907e-05 23.38 0.0337268 23.508 0.0981369 23.6212C0.162547 23.7344 0.255325 23.8289 0.367338 23.8953C0.47935 23.9618 0.606737 23.9979 0.736957 24.0002C0.867178 24.0024 0.995744 23.9707 1.11 23.9082L9 19.6032L16.89 23.9082C17.0043 23.9707 17.1328 24.0024 17.263 24.0002C17.3933 23.9979 17.5207 23.9618 17.6327 23.8953C17.7447 23.8289 17.8375 23.7344 17.9019 23.6212C17.9663 23.508 18.0001 23.38 18 23.2497V2.99973C18 2.20408 17.6839 1.44101 17.1213 0.878405C16.5587 0.315796 15.7956 -0.000274658 15 -0.000274658L3 -0.000274658C2.20435 -0.000274658 1.44129 0.315796 0.87868 0.878405C0.316071 1.44101 2.00803e-07 2.20408 2.00803e-07 2.99973V2.99973Z" fill="#EEEEEE"/>
</svg>
